<svg width="151" height="44" viewBox="0 0 151 44" fill="none" xmlns="http://www.w3.org/2000/svg">
<path d="M149.556 38.9472C149.556 41.2565 147.646 43.1271 145.285 43.1271H5.49968C3.13891 43.1271 1.22266 41.2565 1.22266 38.9472V5.61426C1.22266 3.30607 3.13891 1.42896 5.49968 1.42896H145.283C147.646 1.42896 149.555 3.30607 149.555 5.61426L149.556 38.9472Z" fill="#1C1C1C"/>
<path d="M33.8678 22.044C33.8356 18.5524 36.8 16.8538 36.9356 16.7747C35.2567 14.3881 32.6545 14.062 31.74 14.036C29.5545 13.8118 27.4345 15.3111 26.3211 15.3111C25.1856 15.3111 23.4711 14.0577 21.6234 14.0945C19.2456 14.1303 17.0211 15.4725 15.8011 17.5569C13.2834 21.8068 15.1611 28.0522 17.5734 31.4874C18.78 33.1699 20.19 35.0484 22.0356 34.9823C23.8411 34.9097 24.5156 33.8599 26.6945 33.8599C28.8534 33.8599 29.4867 34.9823 31.3689 34.94C33.3067 34.9097 34.5267 33.25 35.6911 31.5524C37.0856 29.6241 37.6456 27.725 37.6678 27.6275C37.6222 27.6124 33.9045 26.2289 33.8678 22.044Z" fill="white"/>
<path d="M30.3122 11.7762C31.2834 10.5921 31.9478 8.98119 31.7634 7.34644C30.3578 7.4071 28.6 8.29435 27.5878 9.45244C26.6922 10.4729 25.8922 12.1456 26.0989 13.7186C27.6778 13.8334 29.2989 12.9419 30.3122 11.7762Z" fill="white"/>
<path d="M54.8891 11.4544C54.8891 12.7295 54.4969 13.6893 53.7135 14.3339C52.988 14.9287 51.9569 15.2266 50.6213 15.2266C49.9591 15.2266 49.3924 15.1984 48.918 15.1421V8.17517C49.5369 8.07767 50.2035 8.02783 50.9235 8.02783C52.1957 8.02783 53.1546 8.29758 53.8013 8.83708C54.5258 9.447 54.8891 10.3191 54.8891 11.4544ZM53.6613 11.4858C53.6613 10.6592 53.4369 10.0255 52.988 9.5835C52.5391 9.14258 51.8835 8.92158 51.0202 8.92158C50.6535 8.92158 50.3413 8.94542 50.0824 8.99525V14.2917C50.2257 14.3133 50.488 14.3231 50.8691 14.3231C51.7602 14.3231 52.448 14.0815 52.9324 13.5983C53.4169 13.1152 53.6613 12.411 53.6613 11.4858Z" fill="white"/>
<path d="M61.3995 12.568C61.3995 13.3535 61.1695 13.997 60.7095 14.5018C60.2273 15.0207 59.5884 15.2796 58.7906 15.2796C58.0218 15.2796 57.4095 15.0315 56.9529 14.5332C56.4973 14.036 56.2695 13.4087 56.2695 12.6525C56.2695 11.8617 56.504 11.2128 56.9751 10.709C57.4462 10.2053 58.0795 9.95288 58.8773 9.95288C59.6462 9.95288 60.264 10.201 60.7318 10.6982C61.1762 11.1814 61.3995 11.8054 61.3995 12.568ZM60.1918 12.6049C60.1918 12.1336 60.0873 11.7295 59.8795 11.3926C59.6351 10.9853 59.2873 10.7816 58.8351 10.7816C58.3673 10.7816 58.0118 10.9853 57.7673 11.3926C57.5584 11.7295 57.4551 12.1401 57.4551 12.6255C57.4551 13.0967 57.5595 13.5008 57.7673 13.8377C58.0195 14.245 58.3706 14.4487 58.824 14.4487C59.2684 14.4487 59.6173 14.2418 59.8684 13.8269C60.084 13.4835 60.1918 13.0761 60.1918 12.6049Z" fill="white"/>
<path d="M70.1279 10.0569L68.4891 15.1637H67.4224L66.7435 12.9461C66.5713 12.3926 66.4313 11.8422 66.3224 11.2962H66.3013C66.2002 11.8574 66.0602 12.4066 65.8802 12.9461L65.1591 15.1637H64.0802L62.5391 10.0569H63.7357L64.3279 12.4846C64.4713 13.0588 64.5891 13.6059 64.6835 14.1237H64.7046C64.7913 13.6969 64.9346 13.1531 65.1368 12.4955L65.8802 10.058H66.8291L67.5413 12.4435C67.7135 13.0252 67.8535 13.5853 67.9613 14.1248H67.9935C68.0724 13.5994 68.1913 13.0393 68.3491 12.4435L68.9846 10.058H70.1279V10.0569Z" fill="white"/>
<path d="M76.1653 15.1637H75.0009V12.2387C75.0009 11.3373 74.6498 10.8867 73.9453 10.8867C73.5998 10.8867 73.3209 11.0102 73.1042 11.2583C72.8898 11.5063 72.7809 11.7988 72.7809 12.1336V15.1626H71.6164V11.5161C71.6164 11.0676 71.602 10.5812 71.5742 10.0547H72.5975L72.652 10.8531H72.6842C72.8198 10.605 73.022 10.4003 73.2875 10.2367C73.6031 10.046 73.9564 9.94958 74.3431 9.94958C74.832 9.94958 75.2387 10.1034 75.562 10.4122C75.9642 10.7903 76.1653 11.3547 76.1653 12.1043V15.1637Z" fill="white"/>
<path d="M79.3743 15.1637H78.2109V7.71362H79.3743V15.1637Z" fill="white"/>
<path d="M86.2316 12.568C86.2316 13.3535 86.0016 13.997 85.5416 14.5018C85.0593 15.0207 84.4193 15.2796 83.6227 15.2796C82.8527 15.2796 82.2404 15.0315 81.7849 14.5332C81.3293 14.036 81.1016 13.4087 81.1016 12.6525C81.1016 11.8617 81.336 11.2128 81.8071 10.709C82.2782 10.2053 82.9116 9.95288 83.7082 9.95288C84.4782 9.95288 85.0949 10.201 85.5638 10.6982C86.0082 11.1814 86.2316 11.8054 86.2316 12.568ZM85.0227 12.6049C85.0227 12.1336 84.9182 11.7295 84.7105 11.3926C84.4671 10.9853 84.1182 10.7816 83.6671 10.7816C83.1982 10.7816 82.8427 10.9853 82.5993 11.3926C82.3905 11.7295 82.2871 12.1401 82.2871 12.6255C82.2871 13.0967 82.3916 13.5008 82.5993 13.8377C82.8516 14.245 83.2027 14.4487 83.656 14.4487C84.1005 14.4487 84.4482 14.2418 84.6993 13.8269C84.916 13.4835 85.0227 13.0761 85.0227 12.6049Z" fill="white"/>
<path d="M91.8664 15.1637H90.8208L90.7342 14.5755H90.702C90.3442 15.0445 89.8342 15.2796 89.172 15.2796C88.6775 15.2796 88.2775 15.1247 87.9764 14.817C87.7031 14.5375 87.5664 14.1898 87.5664 13.777C87.5664 13.153 87.8331 12.6775 88.3697 12.3481C88.9053 12.0188 89.6586 11.8574 90.6286 11.865V11.7696C90.6286 11.0969 90.2664 10.761 89.5408 10.761C89.0242 10.761 88.5686 10.8878 88.1753 11.1391L87.9386 10.3938C88.4253 10.1002 89.0264 9.95288 89.7353 9.95288C91.1042 9.95288 91.7908 10.657 91.7908 12.0654V13.946C91.7908 14.4563 91.8164 14.8625 91.8664 15.1637ZM90.6575 13.4087V12.6211C89.3731 12.5995 88.7309 12.9429 88.7309 13.6503C88.7309 13.9168 88.8042 14.1161 88.9542 14.2494C89.1042 14.3826 89.2953 14.4487 89.5231 14.4487C89.7786 14.4487 90.0175 14.3696 90.2353 14.2125C90.4542 14.0544 90.5886 13.854 90.6386 13.608C90.6508 13.5528 90.6575 13.4856 90.6575 13.4087Z" fill="white"/>
<path d="M98.4844 15.1637H97.451L97.3966 14.3436H97.3644C97.0344 14.9676 96.4721 15.2796 95.6821 15.2796C95.051 15.2796 94.5255 15.038 94.1088 14.5549C93.6921 14.0717 93.4844 13.4445 93.4844 12.6742C93.4844 11.8476 93.7099 11.1781 94.1633 10.6668C94.6022 10.1901 95.1399 9.95179 95.7799 9.95179C96.4833 9.95179 96.9755 10.1825 97.2555 10.6451H97.2777V7.71362H98.4433V13.7879C98.4433 14.2851 98.4566 14.7434 98.4844 15.1637ZM97.2777 13.01V12.1585C97.2777 12.0112 97.2666 11.892 97.2455 11.801C97.1799 11.528 97.0388 11.2984 96.8244 11.1131C96.6077 10.9279 96.3466 10.8347 96.0455 10.8347C95.611 10.8347 95.271 11.0026 95.021 11.3395C94.7733 11.6765 94.6477 12.1065 94.6477 12.632C94.6477 13.1368 94.7666 13.5463 95.0055 13.8615C95.2577 14.1974 95.5977 14.3653 96.0233 14.3653C96.4055 14.3653 96.711 14.2255 96.9433 13.945C97.1677 13.686 97.2777 13.374 97.2777 13.01Z" fill="white"/>
<path d="M108.442 12.568C108.442 13.3535 108.212 13.997 107.752 14.5018C107.27 15.0207 106.632 15.2796 105.834 15.2796C105.066 15.2796 104.454 15.0315 103.996 14.5332C103.54 14.036 103.312 13.4087 103.312 12.6525C103.312 11.8617 103.547 11.2128 104.018 10.709C104.489 10.2053 105.122 9.95288 105.921 9.95288C106.689 9.95288 107.308 10.201 107.775 10.6982C108.219 11.1814 108.442 11.8054 108.442 12.568ZM107.236 12.6049C107.236 12.1336 107.131 11.7295 106.924 11.3926C106.678 10.9853 106.331 10.7816 105.878 10.7816C105.411 10.7816 105.056 10.9853 104.81 11.3926C104.601 11.7295 104.498 12.1401 104.498 12.6255C104.498 13.0967 104.602 13.5008 104.81 13.8377C105.062 14.245 105.414 14.4487 105.867 14.4487C106.311 14.4487 106.661 14.2418 106.913 13.8269C107.127 13.4835 107.236 13.0761 107.236 12.6049Z" fill="white"/>
<path d="M114.703 15.1637H113.54V12.2387C113.54 11.3373 113.189 10.8867 112.483 10.8867C112.138 10.8867 111.859 11.0102 111.643 11.2583C111.428 11.5063 111.32 11.7988 111.32 12.1336V15.1626H110.154V11.5161C110.154 11.0676 110.141 10.5812 110.113 10.0547H111.135L111.19 10.8531H111.222C111.359 10.605 111.561 10.4003 111.826 10.2367C112.142 10.046 112.494 9.94958 112.882 9.94958C113.37 9.94958 113.777 10.1034 114.1 10.4122C114.503 10.7903 114.703 11.3547 114.703 12.1043V15.1637Z" fill="white"/>
<path d="M122.542 10.9073H121.259V13.3881C121.259 14.0186 121.487 14.3339 121.938 14.3339C122.147 14.3339 122.32 14.3165 122.457 14.2808L122.487 15.142C122.257 15.2265 121.955 15.2688 121.583 15.2688C121.123 15.2688 120.765 15.1323 120.506 14.8593C120.246 14.5863 120.117 14.127 120.117 13.4824V10.9073H119.352V10.0569H120.117V9.12087L121.258 8.78503V10.0558H122.54V10.9073H122.542Z" fill="white"/>
<path d="M128.705 15.1637H127.54V12.2604C127.54 11.345 127.188 10.8867 126.485 10.8867C125.945 10.8867 125.576 11.1521 125.374 11.683C125.34 11.7945 125.32 11.931 125.32 12.0914V15.1626H124.156V7.71362H125.32V10.7914H125.342C125.708 10.2313 126.234 9.95179 126.915 9.95179C127.397 9.95179 127.796 10.1056 128.113 10.4144C128.507 10.799 128.705 11.371 128.705 12.1271V15.1637Z" fill="white"/>
<path d="M135.063 12.3687C135.063 12.5724 135.047 12.7435 135.02 12.8833H131.527C131.543 13.3881 131.71 13.7727 132.033 14.0392C132.328 14.2775 132.71 14.3967 133.176 14.3967C133.693 14.3967 134.164 14.3165 134.588 14.1551L134.771 14.9438C134.274 15.1539 133.69 15.259 133.013 15.259C132.202 15.259 131.563 15.0261 131.101 14.5603C130.636 14.0944 130.406 13.4694 130.406 12.685C130.406 11.9148 130.621 11.2734 131.053 10.7621C131.504 10.2161 132.114 9.94312 132.884 9.94312C133.637 9.94312 134.21 10.2161 134.596 10.7621C134.908 11.1954 135.063 11.7317 135.063 12.3687ZM133.952 12.0751C133.961 11.7382 133.884 11.4479 133.726 11.203C133.524 10.8878 133.216 10.7296 132.8 10.7296C132.42 10.7296 132.11 10.8834 131.873 11.1922C131.68 11.4381 131.565 11.7317 131.527 12.0751H133.952Z" fill="white"/>
<path d="M59.995 34.7406H57.4717L56.0895 30.5059H51.2851L49.9684 34.7406H47.5117L52.2717 20.3236H55.2117L59.995 34.7406ZM55.6728 28.7292L54.4228 24.9646C54.2906 24.58 54.0428 23.6744 53.6773 22.2487H53.6328C53.4873 22.8619 53.2528 23.7675 52.9306 24.9646L51.7028 28.7292H55.6728Z" fill="white"/>
<path d="M72.2365 29.415C72.2365 31.183 71.7465 32.5805 70.7665 33.6064C69.8887 34.5197 68.7987 34.9758 67.4976 34.9758C66.0932 34.9758 65.0843 34.4839 64.4699 33.5003H64.4254V38.9765H62.0565V27.7673C62.0565 26.6558 62.0265 25.515 61.9688 24.345H64.0521L64.1843 25.9928H64.2287C65.0187 24.7513 66.2176 24.1316 67.8265 24.1316C69.0843 24.1316 70.1343 24.6158 70.9743 25.5854C71.8165 26.5561 72.2365 27.8323 72.2365 29.415ZM69.8232 29.4995C69.8232 28.4877 69.5899 27.6535 69.121 26.997C68.6087 26.3123 67.921 25.97 67.0587 25.97C66.4743 25.97 65.9432 26.1607 65.4687 26.5366C64.9932 26.9158 64.6821 27.4108 64.5365 28.024C64.4632 28.31 64.4265 28.544 64.4265 28.7282V30.4615C64.4265 31.2177 64.6643 31.8558 65.1399 32.3768C65.6154 32.8979 66.2332 33.1579 66.9932 33.1579C67.8854 33.1579 68.5799 32.8221 69.0765 32.1526C69.5743 31.482 69.8232 30.598 69.8232 29.4995Z" fill="white"/>
<path d="M84.501 29.415C84.501 31.183 84.011 32.5805 83.0299 33.6064C82.1533 34.5197 81.0633 34.9758 79.7622 34.9758C78.3577 34.9758 77.3488 34.4839 76.7355 33.5003H76.691V38.9765H74.3222V27.7673C74.3222 26.6558 74.2922 25.515 74.2344 24.345H76.3177L76.4499 25.9928H76.4944C77.2833 24.7513 78.4822 24.1316 80.0922 24.1316C81.3488 24.1316 82.3988 24.6158 83.241 25.5854C84.0799 26.5561 84.501 27.8323 84.501 29.415ZM82.0877 29.4995C82.0877 28.4877 81.8533 27.6535 81.3844 26.997C80.8722 26.3123 80.1866 25.97 79.3233 25.97C78.7377 25.97 78.2077 26.1607 77.7322 26.5366C77.2566 26.9158 76.9466 27.4108 76.801 28.024C76.7288 28.31 76.691 28.544 76.691 28.7282V30.4615C76.691 31.2177 76.9288 31.8558 77.4022 32.3768C77.8777 32.8968 78.4955 33.1579 79.2577 33.1579C80.1499 33.1579 80.8444 32.8221 81.341 32.1526C81.8388 31.482 82.0877 30.598 82.0877 29.4995Z" fill="white"/>
<path d="M98.2124 30.6977C98.2124 31.924 97.7757 32.9218 96.8991 33.692C95.9357 34.5338 94.5946 34.9541 92.8713 34.9541C91.2802 34.9541 90.0046 34.6551 89.0391 34.056L89.588 32.1309C90.628 32.7441 91.7691 33.0518 93.0124 33.0518C93.9046 33.0518 94.5991 32.8546 95.098 32.4624C95.5946 32.0703 95.8424 31.5438 95.8424 30.8873C95.8424 30.3023 95.638 29.8093 95.228 29.4096C94.8202 29.0098 94.1391 28.6383 93.188 28.2948C90.5991 27.3534 89.3057 25.9743 89.3057 24.1608C89.3057 22.9757 89.7591 22.0039 90.6668 21.2478C91.5713 20.4905 92.778 20.1124 94.2868 20.1124C95.6324 20.1124 96.7502 20.341 97.6424 20.7971L97.0502 22.6799C96.2168 22.2379 95.2746 22.0169 94.2202 22.0169C93.3868 22.0169 92.7357 22.2173 92.2691 22.616C91.8746 22.9724 91.6768 23.4068 91.6768 23.9214C91.6768 24.4913 91.9024 24.9625 92.3557 25.333C92.7502 25.6753 93.4668 26.0458 94.5068 26.4456C95.7791 26.945 96.7135 27.5289 97.3146 28.1984C97.9135 28.8658 98.2124 29.701 98.2124 30.6977Z" fill="white"/>
<path d="M106.044 26.0783H103.433V31.1256C103.433 32.4093 103.893 33.0507 104.815 33.0507C105.239 33.0507 105.59 33.0149 105.867 32.9434L105.933 34.6973C105.466 34.8674 104.852 34.953 104.091 34.953C103.155 34.953 102.424 34.6746 101.896 34.1188C101.371 33.562 101.106 32.6282 101.106 31.3163V26.0762H99.5508V24.3428H101.106V22.4394L103.433 21.7548V24.3428H106.044V26.0783Z" fill="white"/>
<path d="M117.822 29.4573C117.822 31.0552 117.353 32.3671 116.418 33.393C115.437 34.4493 114.134 34.9758 112.511 34.9758C110.947 34.9758 109.701 34.4699 108.772 33.458C107.843 32.4462 107.379 31.1689 107.379 29.6295C107.379 28.0186 107.857 26.6991 108.816 25.6732C109.772 24.6462 111.063 24.1327 112.687 24.1327C114.251 24.1327 115.51 24.6386 116.46 25.6515C117.369 26.6341 117.822 27.9027 117.822 29.4573ZM115.364 29.532C115.364 28.5733 115.154 27.751 114.729 27.0653C114.232 26.2354 113.522 25.8216 112.602 25.8216C111.65 25.8216 110.927 26.2365 110.43 27.0653C110.004 27.7521 109.794 28.5874 109.794 29.5754C109.794 30.5341 110.004 31.3564 110.43 32.041C110.942 32.8709 111.658 33.2847 112.581 33.2847C113.486 33.2847 114.196 32.8622 114.708 32.0194C115.144 31.3206 115.364 30.4897 115.364 29.532Z" fill="white"/>
<path d="M125.525 26.3763C125.29 26.334 125.04 26.3123 124.778 26.3123C123.945 26.3123 123.3 26.6189 122.847 27.2332C122.453 27.7748 122.255 28.4595 122.255 29.2861V34.7407H119.887L119.909 27.6188C119.909 26.4207 119.879 25.3298 119.82 24.3461H121.884L121.97 26.3351H122.036C122.286 25.6515 122.68 25.1012 123.22 24.6884C123.748 24.3168 124.318 24.1316 124.933 24.1316C125.151 24.1316 125.349 24.1468 125.525 24.1738V26.3763Z" fill="white"/>
<path d="M136.12 29.051C136.12 29.4648 136.092 29.8136 136.033 30.0986H128.927C128.955 31.1256 129.298 31.911 129.958 32.4526C130.557 32.9369 131.331 33.1796 132.282 33.1796C133.335 33.1796 134.295 33.016 135.158 32.6877L135.529 34.2911C134.52 34.7201 133.329 34.9335 131.955 34.9335C130.301 34.9335 129.003 34.459 128.059 33.5111C127.117 32.5631 126.645 31.2902 126.645 29.6934C126.645 28.1258 127.083 26.8204 127.962 25.7793C128.882 24.6678 130.126 24.1121 131.69 24.1121C133.227 24.1121 134.39 24.6678 135.18 25.7793C135.806 26.6622 136.12 27.7542 136.12 29.051ZM133.861 28.4519C133.877 27.7672 133.722 27.1757 133.401 26.6763C132.991 26.0339 132.361 25.7132 131.513 25.7132C130.739 25.7132 130.109 26.0263 129.628 26.6546C129.233 27.1541 128.999 27.7531 128.927 28.4508H133.861V28.4519Z" fill="white"/>
</svg>
