<svg width="121" height="121" viewBox="0 0 121 121" fill="none" xmlns="http://www.w3.org/2000/svg">
<rect x="0.5" y="0.5" width="120" height="120" rx="60" fill="white" fill-opacity="0.05"/>
<path d="M84.8515 80.1874C81.3529 74.1605 75.7528 69.6371 69.1249 67.4843C72.3018 65.5951 74.7706 62.7152 76.152 59.2869C77.5334 55.8586 77.7511 52.0715 76.7715 48.5075C75.7919 44.9436 73.6692 41.7998 70.7296 39.5591C67.79 37.3185 64.1961 36.105 60.4999 36.105C56.8038 36.105 53.2098 37.3185 50.2702 39.5591C47.3306 41.7998 45.208 44.9436 44.2284 48.5075C43.2488 52.0715 43.4664 55.8586 44.8478 59.2869C46.2292 62.7152 48.698 65.5951 51.8749 67.4843C45.247 69.6371 39.647 74.1605 36.1484 80.1874C35.9766 80.47 35.8857 80.7943 35.8857 81.1249C35.8857 81.4556 35.9766 81.7799 36.1484 82.0624C36.3086 82.3497 36.5434 82.5885 36.8281 82.7535C37.1127 82.9185 37.4366 83.0036 37.7655 82.9999H83.2343C83.5633 83.0036 83.8871 82.9185 84.1718 82.7535C84.4564 82.5885 84.6912 82.3497 84.8515 82.0624C85.0233 81.7799 85.1141 81.4556 85.1141 81.1249C85.1141 80.7943 85.0233 80.47 84.8515 80.1874Z" fill="white"/>
</svg>
