<svg width="32" height="32" viewBox="0 0 32 32" fill="none" xmlns="http://www.w3.org/2000/svg">
<path d="M7.94992 5.79997C9.82669 4.31659 12.0754 3.37818 14.4499 3.08747C14.5197 3.08046 14.5901 3.08819 14.6566 3.11016C14.7232 3.13213 14.7844 3.16784 14.8363 3.21499C14.8881 3.26214 14.9295 3.31966 14.9577 3.38383C14.9859 3.448 15.0003 3.51738 14.9999 3.58747V15H11.9624C11.7119 11.7798 10.2728 8.76794 7.92492 6.54997C7.87132 6.50241 7.82887 6.44362 7.80059 6.37779C7.7723 6.31196 7.75887 6.24071 7.76126 6.1691C7.76365 6.09749 7.78179 6.02728 7.8144 5.96348C7.84701 5.89968 7.89328 5.84385 7.94992 5.79997ZM5.74992 8.01247C4.29973 9.87512 3.37981 12.095 3.08742 14.4375C3.08051 14.5078 3.08822 14.5788 3.11008 14.646C3.13193 14.7133 3.16746 14.7752 3.21441 14.8281C3.26137 14.8809 3.31875 14.9234 3.38294 14.953C3.44713 14.9826 3.51675 14.9986 3.58742 15H9.94992C9.70265 12.3039 8.46983 9.7938 6.48742 7.94997C6.43636 7.90253 6.37596 7.86628 6.31007 7.84356C6.24419 7.82084 6.17428 7.81214 6.10484 7.81803C6.03539 7.82391 5.96795 7.84425 5.90682 7.87773C5.8457 7.91122 5.79226 7.95711 5.74992 8.01247ZM24.0499 5.79997C22.1731 4.31659 19.9244 3.37818 17.5499 3.08747C17.4802 3.08046 17.4097 3.08819 17.3432 3.11016C17.2766 3.13213 17.2154 3.16784 17.1636 3.21499C17.1117 3.26214 17.0703 3.31966 17.0421 3.38383C17.014 3.448 16.9996 3.51738 16.9999 3.58747V15H20.0374C20.2879 11.7798 21.727 8.76794 24.0749 6.54997C24.1285 6.50241 24.171 6.44362 24.1992 6.37779C24.2275 6.31196 24.241 6.24071 24.2386 6.1691C24.2362 6.09749 24.218 6.02728 24.1854 5.96348C24.1528 5.89968 24.1066 5.84385 24.0499 5.79997ZM28.9124 14.4375C28.62 12.095 27.7001 9.87512 26.2499 8.01247C26.2076 7.95711 26.1541 7.91122 26.093 7.87773C26.0319 7.84425 25.9644 7.82391 25.895 7.81803C25.8256 7.81214 25.7556 7.82084 25.6898 7.84356C25.6239 7.86628 25.5635 7.90253 25.5124 7.94997C23.53 9.7938 22.2972 12.3039 22.0499 15H28.4124C28.4831 14.9986 28.5527 14.9826 28.6169 14.953C28.6811 14.9234 28.7385 14.8809 28.7854 14.8281C28.8324 14.7752 28.8679 14.7133 28.8898 14.646C28.9116 14.5788 28.9193 14.5078 28.9124 14.4375ZM3.08742 17.5625C3.37981 19.9049 4.29973 22.1248 5.74992 23.9875C5.79226 24.0428 5.8457 24.0887 5.90682 24.1222C5.96795 24.1557 6.03539 24.176 6.10484 24.1819C6.17428 24.1878 6.24419 24.1791 6.31007 24.1564C6.37596 24.1337 6.43636 24.0974 6.48742 24.05C8.46983 22.2061 9.70265 19.696 9.94992 17H3.58742C3.51675 17.0014 3.44713 17.0173 3.38294 17.0469C3.31875 17.0765 3.26137 17.1191 3.21441 17.1719C3.16746 17.2247 3.13193 17.2867 3.11008 17.3539C3.08822 17.4211 3.08051 17.4921 3.08742 17.5625ZM26.2499 23.9875C27.7001 22.1248 28.62 19.9049 28.9124 17.5625C28.9193 17.4921 28.9116 17.4211 28.8898 17.3539C28.8679 17.2867 28.8324 17.2247 28.7854 17.1719C28.7385 17.1191 28.6811 17.0765 28.6169 17.0469C28.5527 17.0173 28.4831 17.0014 28.4124 17H22.0499C22.2972 19.696 23.53 22.2061 25.5124 24.05C25.5635 24.0974 25.6239 24.1337 25.6898 24.1564C25.7556 24.1791 25.8256 24.1878 25.895 24.1819C25.9644 24.176 26.0319 24.1557 26.093 24.1222C26.1541 24.0887 26.2076 24.0428 26.2499 23.9875ZM7.94992 26.2C9.82669 27.6833 12.0754 28.6218 14.4499 28.9125C14.5197 28.9195 14.5901 28.9117 14.6566 28.8898C14.7232 28.8678 14.7844 28.8321 14.8363 28.7849C14.8881 28.7378 14.9295 28.6803 14.9577 28.6161C14.9859 28.5519 15.0003 28.4826 14.9999 28.4125V17H11.9624C11.7119 20.2201 10.2728 23.232 7.92492 25.45C7.87132 25.4975 7.82887 25.5563 7.80059 25.6221C7.7723 25.688 7.75887 25.7592 7.76126 25.8308C7.76365 25.9025 7.78179 25.9727 7.8144 26.0365C7.84701 26.1003 7.89328 26.1561 7.94992 26.2ZM20.0374 17H16.9999V28.4125C16.9996 28.4826 17.014 28.5519 17.0421 28.6161C17.0703 28.6803 17.1117 28.7378 17.1636 28.7849C17.2154 28.8321 17.2766 28.8678 17.3432 28.8898C17.4097 28.9117 17.4802 28.9195 17.5499 28.9125C19.9244 28.6218 22.1731 27.6833 24.0499 26.2C24.1066 26.1561 24.1528 26.1003 24.1854 26.0365C24.218 25.9727 24.2362 25.9025 24.2386 25.8308C24.241 25.7592 24.2275 25.688 24.1992 25.6221C24.171 25.5563 24.1285 25.4975 24.0749 25.45C21.727 23.232 20.2879 20.2201 20.0374 17Z" fill="#E62828"/>
</svg>
