<svg width="120" height="120" viewBox="0 0 120 120" fill="none" xmlns="http://www.w3.org/2000/svg">
<rect width="120" height="120" rx="60" fill="white" fill-opacity="0.05"/>
<path d="M48.7496 90C47.7557 89.9865 46.8027 89.6019 46.0777 88.9218L19.8277 62.6719C19.2298 61.9432 18.9242 61.0183 18.9704 60.0768C19.0166 59.1354 19.4114 58.2448 20.0779 57.5783C20.7444 56.9118 21.635 56.517 22.5764 56.4708C23.5179 56.4245 24.4429 56.7301 25.1715 57.3281L48.7496 80.9531L98.5777 31.0781C99.3063 30.4801 100.231 30.1745 101.173 30.2208C102.114 30.267 103.005 30.6618 103.671 31.3283C104.338 31.9948 104.733 32.8854 104.779 33.8268C104.825 34.7683 104.519 35.6932 103.921 36.4219L51.4215 88.9218C50.6965 89.6019 49.7435 89.9865 48.7496 90Z" fill="white"/>
</svg>
