<svg width="17" height="12" viewBox="0 0 17 12" fill="none" xmlns="http://www.w3.org/2000/svg">
<path d="M1.61139 5.51412L1.61114 5.51386C1.4822 5.38493 1.30734 5.3125 1.125 5.3125C0.942664 5.3125 0.767795 5.38493 0.638864 5.51386C0.509933 5.6428 0.4375 5.81766 0.4375 6C0.4375 6.01101 0.437765 6.02202 0.438294 6.03303C0.446504 6.20374 0.518009 6.36528 0.638864 6.48614L0.639122 6.48639L5.45136 11.2986C5.71985 11.5671 6.15515 11.5671 6.42364 11.2986L16.0486 1.67364C16.1776 1.5447 16.25 1.36984 16.25 1.1875C16.25 1.00516 16.1776 0.830296 16.0486 0.701364C15.9197 0.572433 15.7448 0.5 15.5625 0.5C15.3802 0.5 15.2053 0.572433 15.0764 0.701364L5.9375 9.84023L1.61139 5.51412Z" fill="#7BC377"/>
</svg>
