<svg width="120" height="120" viewBox="0 0 120 120" fill="none" xmlns="http://www.w3.org/2000/svg">
<rect width="120" height="120" rx="60" fill="white" fill-opacity="0.05"/>
<path d="M38.7864 33.4834C37.3219 32.0189 34.9476 32.0189 33.4831 33.4834C32.0186 34.9478 32.0186 37.3222 33.4831 38.7867L54.6965 60L33.4834 81.2131C32.0189 82.6775 32.0189 85.0519 33.4834 86.5164C34.9479 87.9808 37.3222 87.9808 38.7867 86.5164L59.9998 65.3033L81.2128 86.5164C82.6773 87.9808 85.0517 87.9808 86.5161 86.5164C87.9806 85.0519 87.9806 82.6775 86.5161 81.2131L65.3031 60L86.5164 38.7867C87.9809 37.3222 87.9809 34.9478 86.5164 33.4834C85.0519 32.0189 82.6776 32.0189 81.2131 33.4834L59.9998 54.6967L38.7864 33.4834Z" fill="white"/>
</svg>
