<svg width="24" height="18" viewBox="0 0 24 18" xmlns="http://www.w3.org/2000/svg">
<path d="M6.00003 9.62501C6.00129 9.72385 5.98275 9.82194 5.94551 9.9135C5.90826 10.0051 5.85306 10.0882 5.78317 10.1581C5.71327 10.228 5.63009 10.2832 5.53853 10.3205C5.44696 10.3577 5.34887 10.3763 5.25003 10.375H1.12503C0.985698 10.3739 0.849293 10.3349 0.7304 10.2622C0.611506 10.1896 0.514596 10.086 0.45003 9.96251C0.38999 9.83677 0.365253 9.69708 0.378463 9.55837C0.391674 9.41966 0.442335 9.28715 0.52503 9.17501C1.18877 8.28404 2.07445 7.5826 3.09378 7.14063C2.65577 6.73969 2.31924 6.24046 2.11189 5.68403C1.90453 5.1276 1.83228 4.52989 1.90108 3.94008C1.96987 3.35027 2.17775 2.78523 2.5076 2.29147C2.83746 1.7977 3.27985 1.38933 3.79838 1.09995C4.3169 0.81058 4.89674 0.648481 5.49015 0.626998C6.08357 0.605514 6.67361 0.725262 7.2117 0.976383C7.7498 1.2275 8.22056 1.60282 8.58526 2.07144C8.94995 2.54006 9.19814 3.08859 9.30941 3.67188C9.33714 3.8238 9.3179 3.98056 9.25425 4.12126C9.1906 4.26196 9.08557 4.37991 8.95316 4.45938C7.74062 5.1784 6.81842 6.29963 6.3469 7.62813C6.11447 8.2681 5.99703 8.94414 6.00003 9.62501ZM23.475 9.17501C22.8113 8.28404 21.9256 7.5826 20.9063 7.14063C21.3443 6.73969 21.6808 6.24046 21.8882 5.68403C22.0955 5.1276 22.1678 4.52989 22.099 3.94008C22.0302 3.35027 21.8223 2.78523 21.4925 2.29147C21.1626 1.7977 20.7202 1.38933 20.2017 1.09995C19.6832 0.81058 19.1033 0.648481 18.5099 0.626998C17.9165 0.605514 17.3265 0.725262 16.7884 0.976383C16.2503 1.2275 15.7795 1.60282 15.4148 2.07144C15.0501 2.54006 14.8019 3.08859 14.6907 3.67188C14.6629 3.8238 14.6822 3.98056 14.7458 4.12126C14.8095 4.26196 14.9145 4.37991 15.0469 4.45938C16.261 5.17656 17.1838 6.29844 17.6532 7.62813C17.8856 8.2681 18.003 8.94414 18 9.62501C17.9988 9.72385 18.0173 9.82194 18.0546 9.9135C18.0918 10.0051 18.147 10.0882 18.2169 10.1581C18.2868 10.228 18.37 10.2832 18.4615 10.3205C18.5531 10.3577 18.6512 10.3763 18.75 10.375H22.875C23.0143 10.375 23.1508 10.3362 23.2693 10.263C23.3878 10.1898 23.4836 10.085 23.5459 9.96042C23.6081 9.83584 23.6345 9.69637 23.622 9.55765C23.6095 9.41893 23.5586 9.28643 23.475 9.17501ZM14.7375 13.1969C15.484 12.6248 16.0324 11.8332 16.3057 10.9333C16.5791 10.0335 16.5637 9.07061 16.2616 8.17999C15.9595 7.28936 15.386 6.51575 14.6217 5.96786C13.8573 5.41996 12.9405 5.12531 12 5.12531C11.0596 5.12531 10.1428 5.41996 9.37839 5.96786C8.61402 6.51575 8.04051 7.28936 7.73845 8.17999C7.4364 9.07061 7.42096 10.0335 7.69433 10.9333C7.96769 11.8332 8.51611 12.6248 9.26253 13.1969C7.80428 13.8443 6.62204 14.9867 5.92503 16.4219C5.86957 16.5359 5.84473 16.6625 5.85295 16.789C5.86117 16.9156 5.90216 17.0378 5.97191 17.1438C6.03682 17.2524 6.12882 17.3424 6.23893 17.4048C6.34903 17.4673 6.47345 17.5001 6.60003 17.5H17.4C17.5266 17.5001 17.651 17.4673 17.7611 17.4048C17.8712 17.3424 17.9632 17.2524 18.0282 17.1438C18.0979 17.0378 18.1389 16.9156 18.1471 16.789C18.1553 16.6625 18.1305 16.5359 18.075 16.4219C17.378 14.9867 16.1958 13.8443 14.7375 13.1969Z"/>
</svg>
