<svg width="13" height="9" viewBox="0 0 13 9" fill="none" xmlns="http://www.w3.org/2000/svg">
<path fill-rule="evenodd" clip-rule="evenodd" d="M12.5963 0.639307C12.7955 0.830544 12.8019 1.14706 12.6107 1.34627L9.25069 4.84627C9.15641 4.94448 9.02615 5 8.89 5C8.75385 5 8.62359 4.94448 8.52931 4.84627L6.49 2.72199L4.07335 5.23933L5.79513 6.89223L0.25 8.5L1.63019 2.8939L3.35197 4.5468L6.12931 1.65373C6.22359 1.55552 6.35385 1.5 6.49 1.5C6.62615 1.5 6.75641 1.55552 6.85069 1.65373L8.89 3.77801L11.8893 0.653735C12.0805 0.454529 12.3971 0.44807 12.5963 0.639307Z" fill="#FFA1A2"/>
</svg>
