<svg width="19" height="18" viewBox="0 0 19 18" fill="none" xmlns="http://www.w3.org/2000/svg">
<path fill-rule="evenodd" clip-rule="evenodd" d="M2.59375 13.5V3.9375C2.59375 3.62684 2.84559 3.375 3.15625 3.375H16.6562C16.9669 3.375 17.2188 3.62684 17.2188 3.9375V13.5C17.2188 13.5 17.2188 13.966 16.8892 14.2955C16.8892 14.2955 16.5597 14.625 16.0938 14.625H3.71875C3.71875 14.625 3.25276 14.625 2.92326 14.2955C2.92326 14.2955 2.59375 13.966 2.59375 13.5ZM3.71875 13.5H16.0938V4.5H3.71875V13.5Z" fill="white" fill-opacity="0.4"/>
<path d="M3.53635 3.52285C3.4326 3.42775 3.29698 3.375 3.15625 3.375C3.1481 3.375 3.13996 3.37518 3.13182 3.37553C2.98277 3.38201 2.84241 3.44743 2.7416 3.5574C2.6465 3.66115 2.59375 3.79677 2.59375 3.9375C2.59375 3.94565 2.59393 3.95379 2.59428 3.96193C2.60076 4.11098 2.66618 4.25134 2.77615 4.35215L9.52615 10.5396C9.74121 10.7368 10.0713 10.7368 10.2863 10.5396L17.036 4.35249C17.1522 4.24595 17.2188 4.09517 17.2188 3.9375L17.2187 3.93282C17.2176 3.79371 17.1649 3.65996 17.0709 3.5574C16.9701 3.44743 16.8297 3.38201 16.6807 3.37553C16.6725 3.37518 16.6644 3.375 16.6562 3.375L16.6537 3.37501C16.5138 3.37565 16.3792 3.42836 16.2762 3.52285L9.90625 9.36193L3.53635 3.52285Z" fill="white" fill-opacity="0.4"/>
</svg>
