<svg width="151" height="45" viewBox="0 0 151 45" fill="none" xmlns="http://www.w3.org/2000/svg">
<path d="M144.835 44.278H5.94618C2.89201 44.278 0.390625 41.8391 0.390625 38.8613V6.36129C0.390625 3.38348 2.89201 0.944629 5.94618 0.944629H144.835C147.889 0.944629 150.391 3.38348 150.391 6.36129V38.8613C150.391 41.8391 147.889 44.278 144.835 44.278Z" fill="#1C1C1C"/>
<path d="M11.152 9.11154C10.8256 9.44466 10.6367 9.96331 10.6367 10.635V34.5929C10.6367 35.2646 10.8256 35.7832 11.152 36.1163L11.2326 36.1895L25.002 22.7697V22.4528L11.2326 9.033L11.152 9.11154Z" fill="white"/>
<path d="M31.2527 27.2452L26.668 22.7697V22.4528L31.2582 17.9773L31.361 18.0356L36.7971 21.0513C38.3485 21.9071 38.3485 23.3154 36.7971 24.1767L31.361 27.187L31.2527 27.2452Z" fill="white"/>
<path d="M30.5274 28.0203L25.8344 23.4446L11.9844 36.9497C12.4997 37.4778 13.3399 37.5414 14.2955 37.0133L30.5274 28.0203Z" fill="white"/>
<path d="M30.5274 17.2022L14.2955 8.20921C13.3399 7.6865 12.4997 7.75015 11.9844 8.27827L25.8344 21.778L30.5274 17.2022Z" fill="white"/>
<path d="M53.0748 12.042C53.0748 12.9466 52.797 13.6711 52.2498 14.2114C51.6207 14.8519 50.8012 15.1742 49.797 15.1742C48.8373 15.1742 48.0179 14.8465 47.3457 14.2006C46.672 13.5451 46.3359 12.7408 46.3359 11.778C46.3359 10.8152 46.672 10.0108 47.3457 9.36078C48.0179 8.70942 48.8373 8.38171 49.797 8.38171C50.2748 8.38171 50.7304 8.47786 51.1651 8.65661C51.5984 8.83671 51.9512 9.08046 52.2068 9.38109L51.6262 9.95255C51.1804 9.43932 50.5734 9.18609 49.797 9.18609C49.097 9.18609 48.4901 9.42442 47.9748 9.90515C47.4651 10.3872 47.2095 11.0115 47.2095 11.778C47.2095 12.5444 47.4651 13.1741 47.9748 13.6562C48.4901 14.1315 49.097 14.3753 49.797 14.3753C50.5401 14.3753 51.1651 14.1315 51.6582 13.6508C51.9832 13.3325 52.1679 12.8938 52.2165 12.3332H49.797V11.5505H53.0248C53.0637 11.7197 53.0748 11.8836 53.0748 12.042Z" fill="white"/>
<path d="M58.195 9.32824H55.163V11.3866H57.8964V12.1693H55.163V14.2276H58.195V15.0252H54.3047V8.53064H58.195V9.32824Z" fill="white"/>
<path d="M61.8079 15.0252H60.9496V9.32824H59.0898V8.53064H63.669V9.32824H61.8079V15.0252Z" fill="white"/>
<path d="M66.9844 15.0252V8.53064H67.8413V15.0252H66.9844Z" fill="white"/>
<path d="M71.6399 15.0252H70.7885V9.32824H68.9219V8.53064H73.5066V9.32824H71.6399V15.0252Z" fill="white"/>
<path d="M82.1755 14.1897C81.5186 14.8465 80.7047 15.1742 79.7339 15.1742C78.7575 15.1742 77.9436 14.8465 77.2866 14.1897C76.6311 13.5343 76.3047 12.7299 76.3047 11.778C76.3047 10.826 76.6311 10.0216 77.2866 9.36619C77.9436 8.70942 78.7575 8.38171 79.7339 8.38171C80.6991 8.38171 81.513 8.70942 82.17 9.37161C82.8311 10.0324 83.1575 10.8314 83.1575 11.778C83.1575 12.7299 82.8311 13.5343 82.1755 14.1897ZM77.9214 13.6454C78.4158 14.1315 79.0172 14.3753 79.7339 14.3753C80.445 14.3753 81.0519 14.1315 81.5408 13.6454C82.0339 13.1592 82.2838 12.5349 82.2838 11.778C82.2838 11.021 82.0339 10.3967 81.5408 9.91057C81.0519 9.42442 80.445 9.18067 79.7339 9.18067C79.0172 9.18067 78.4158 9.42442 77.9214 9.91057C77.4283 10.3967 77.1783 11.021 77.1783 11.778C77.1783 12.5349 77.4283 13.1592 77.9214 13.6454Z" fill="white"/>
<path d="M84.3633 15.0252V8.53064H85.4049L88.6438 13.5817H88.6813L88.6438 12.3331V8.53064H89.5008V15.0252H88.6063L85.2147 9.72501H85.1772L85.2147 10.979V15.0252H84.3633Z" fill="white"/>
<path d="M76.0977 24.5099C73.488 24.5099 71.3561 26.4463 71.3561 29.1181C71.3561 31.7682 73.488 33.725 76.0977 33.725C78.713 33.725 80.845 31.7682 80.845 29.1181C80.845 26.4463 78.713 24.5099 76.0977 24.5099ZM76.0977 31.9104C74.6658 31.9104 73.4338 30.758 73.4338 29.1181C73.4338 27.4565 74.6658 26.3244 76.0977 26.3244C77.5297 26.3244 78.7672 27.4565 78.7672 29.1181C78.7672 30.758 77.5297 31.9104 76.0977 31.9104ZM65.7519 24.5099C63.1366 24.5099 61.0102 26.4463 61.0102 29.1181C61.0102 31.7682 63.1366 33.725 65.7519 33.725C68.3658 33.725 70.4936 31.7682 70.4936 29.1181C70.4936 26.4463 68.3658 24.5099 65.7519 24.5099ZM65.7519 31.9104C64.3186 31.9104 63.0825 30.758 63.0825 29.1181C63.0825 27.4565 64.3186 26.3244 65.7519 26.3244C67.1838 26.3244 68.4158 27.4565 68.4158 29.1181C68.4158 30.758 67.1838 31.9104 65.7519 31.9104ZM53.4408 25.9223V27.8804H58.2366C58.0963 28.9745 57.7213 29.7789 57.1463 30.3395C56.4463 31.0166 55.3561 31.7682 53.4408 31.7682C50.4894 31.7682 48.1783 29.4458 48.1783 26.5682C48.1783 23.6906 50.4894 21.3682 53.4408 21.3682C55.0366 21.3682 56.1977 21.9762 57.0547 22.7643L58.47 21.3844C57.2714 20.2686 55.6769 19.4114 53.4408 19.4114C49.3936 19.4114 45.9922 22.6222 45.9922 26.5682C45.9922 30.5142 49.3936 33.725 53.4408 33.725C55.6283 33.725 57.2713 33.0262 58.563 31.7154C59.8866 30.4249 60.2991 28.6103 60.2991 27.1451C60.2991 26.6901 60.2602 26.2716 60.1908 25.9223H53.4408ZM103.782 27.4403C103.392 26.4098 102.188 24.5099 99.7352 24.5099C97.3047 24.5099 95.2811 26.3773 95.2811 29.1181C95.2811 31.6991 97.2838 33.725 99.9686 33.725C102.139 33.725 103.392 32.4344 103.907 31.6829L102.296 30.6361C101.759 31.4026 101.027 31.9104 99.9686 31.9104C98.9172 31.9104 98.163 31.4405 97.6797 30.5142L104 27.9643L103.782 27.4403ZM97.338 28.9745C97.2838 27.1979 98.7533 26.2879 99.8061 26.2879C100.631 26.2879 101.331 26.6901 101.564 27.2656L97.338 28.9745ZM92.2005 33.4446H94.2783V19.903H92.2005V33.4446ZM88.7977 25.5363H88.7283C88.2616 24.9974 87.3713 24.5099 86.2436 24.5099C83.8769 24.5099 81.713 26.5357 81.713 29.133C81.713 31.7154 83.8769 33.725 86.2436 33.725C87.3713 33.725 88.2616 33.2334 88.7283 32.6782H88.7977V33.339C88.7977 35.1008 87.8324 36.0474 86.2755 36.0474C85.0061 36.0474 84.2186 35.1536 83.8936 34.402L82.0866 35.1374C82.6074 36.3588 83.9866 37.8619 86.2755 37.8619C88.7116 37.8619 90.7672 36.4644 90.7672 33.0641V24.7902H88.7977V25.5363ZM86.4213 31.9104C84.9894 31.9104 83.7908 30.7417 83.7908 29.133C83.7908 27.5093 84.9894 26.3244 86.4213 26.3244C87.8324 26.3244 88.945 27.5093 88.945 29.133C88.945 30.7417 87.8324 31.9104 86.4213 31.9104ZM113.51 19.903H108.541V33.4446H110.613V28.3137H113.51C115.812 28.3137 118.069 26.6901 118.069 24.1077C118.069 21.5266 115.806 19.903 113.51 19.903ZM113.564 26.4301H110.613V21.7866H113.564C115.112 21.7866 115.995 23.0392 115.995 24.1077C115.995 25.1558 115.112 26.4301 113.564 26.4301ZM126.374 24.4841C124.877 24.4841 123.32 25.1287 122.68 26.5574L124.519 27.3089C124.914 26.5574 125.642 26.3136 126.412 26.3136C127.487 26.3136 128.577 26.9433 128.594 28.0551V28.1973C128.219 27.986 127.416 27.6732 126.428 27.6732C124.448 27.6732 122.43 28.7362 122.43 30.7201C122.43 32.5346 124.052 33.7033 125.875 33.7033C127.27 33.7033 128.039 33.0899 128.523 32.3762H128.594V33.423H130.595V28.2284C130.595 25.8275 128.756 24.4841 126.374 24.4841ZM126.124 31.905C125.446 31.905 124.502 31.5773 124.502 30.758C124.502 29.7099 125.68 29.3077 126.699 29.3077C127.612 29.3077 128.039 29.504 128.594 29.7627C128.431 31.0166 127.324 31.905 126.124 31.905ZM137.887 24.7807L135.505 30.651H135.434L132.971 24.7807H130.737L134.437 32.9842L132.325 37.5491H134.491L140.192 24.7807H137.887ZM119.207 33.4446H121.285V19.903H119.207V33.4446Z" fill="white"/>
</svg>
