<svg width="21" height="26" viewBox="0 0 21 26" fill="none" xmlns="http://www.w3.org/2000/svg">
<path d="M19.7381 12.2981C19.9434 12.7435 19.9434 13.2564 19.7381 13.7019L15.4956 22.9103C15.2217 23.5049 14.6268 23.8858 13.9721 23.8858L6.08959 23.8858C5.4349 23.8858 4.84005 23.5049 4.5661 22.9103L0.323583 13.7019C0.118362 13.2564 0.118362 12.7435 0.323583 12.2981L4.5661 3.08961C4.84005 2.495 5.43491 2.1141 6.08959 2.1141L13.9721 2.1141C14.6268 2.1141 15.2217 2.495 15.4956 3.08961L19.7381 12.2981Z" fill="#E62828"/>
<path d="M14.5033 13.3307C14.5788 13.3782 14.6487 13.4202 14.7167 13.464C14.7549 13.4891 14.7941 13.5143 14.8295 13.5432C15.1696 13.8172 15.4883 14.1172 15.6803 14.5133C15.7968 14.7528 15.9011 14.9979 15.9459 15.2774L15.9467 15.2825C15.9939 15.5762 16.0406 15.8662 15.9822 16.1516C15.9198 16.4582 15.889 16.7676 15.7614 17.0695C15.5778 17.5056 15.3243 17.8737 14.9758 18.1794C14.8276 18.3089 14.6524 18.4105 14.4819 18.5111C14.3281 18.6015 14.1632 18.6733 14.0038 18.7534C13.9936 18.759 13.9833 18.7665 13.9721 18.7683C13.782 18.8047 13.5919 18.8699 13.4009 18.8718C12.1698 18.882 10.9388 18.8802 9.70776 18.8802H4.64011C4.40154 18.8802 4.33445 18.8149 4.33445 18.5773V13.1956C4.33445 13.0046 4.43043 12.9086 4.62986 12.9076C5.1191 12.9058 5.60835 12.9076 6.0976 12.9058C6.15258 12.9058 6.20756 12.8965 6.29982 12.8871C6.2495 12.8499 6.23458 12.834 6.21688 12.8266C6.07616 12.7688 5.93358 12.7185 5.79566 12.656C5.66426 12.5964 5.53659 12.5274 5.41172 12.4557C5.08276 12.2665 4.82276 11.9981 4.58699 11.7092C4.47423 11.5704 4.40714 11.3961 4.32047 11.2367C4.20491 11.0252 4.17975 10.7894 4.11918 10.563C4.04929 10.3021 4.0409 10.0486 4.06327 9.79604C4.08843 9.50715 4.14248 9.21546 4.30463 8.95826C4.38104 8.83618 4.42671 8.69453 4.50499 8.57432C4.59911 8.42801 4.70255 8.28357 4.8209 8.15683C4.98957 7.97604 5.1629 7.79525 5.3586 7.64708C5.53939 7.51009 5.75 7.41224 5.95315 7.30694C6.0715 7.24544 6.2001 7.20257 6.32498 7.15504C6.36412 7.14013 6.40698 7.13081 6.44892 7.12988C6.60455 7.12429 6.75924 7.11963 6.91487 7.11963H15.547C15.8024 7.11963 15.8247 7.14106 15.8247 7.3992C15.8247 9.19683 15.8229 10.9954 15.8275 12.793C15.8275 12.9822 15.7418 13.1145 15.5144 13.1071C15.1072 13.0931 14.699 13.1024 14.2918 13.1043C14.2452 13.1043 14.1995 13.1154 14.1343 13.1238L14.5033 13.3307Z" fill="white"/>
</svg>
