<svg width="62" height="79" viewBox="0 0 62 79" fill="none" xmlns="http://www.w3.org/2000/svg">
<g clip-path="url(#clip0_637_10962)">
<path d="M60.8709 37.4143C61.5038 38.788 61.5038 40.3699 60.8709 41.7436L47.7872 70.142C46.9423 71.9758 45.1078 73.1505 43.0888 73.1505L18.7794 73.1505C16.7604 73.1505 14.9258 71.9758 14.081 70.142L0.997267 41.7436C0.364374 40.3699 0.364374 38.788 0.997267 37.4143L14.081 9.01591C14.9258 7.18215 16.7604 6.00749 18.7794 6.00749L43.0888 6.00749C45.1078 6.00749 46.9423 7.18215 47.7872 9.01591L60.8709 37.4143Z" fill="#E62828"/>
<path d="M44.7271 40.5991C44.9599 40.7456 45.1755 40.8749 45.3853 41.01C45.5031 41.0876 45.6238 41.1652 45.733 41.2543C46.782 42.0992 47.7649 43.0246 48.3569 44.2461C48.7162 44.9847 49.038 45.7405 49.176 46.6027L49.1785 46.6182C49.3242 47.5239 49.4681 48.4183 49.2881 49.2984C49.0955 50.2439 49.0007 51.1981 48.6069 52.1292C48.0408 53.4742 47.2591 54.6094 46.1842 55.5521C45.7273 55.9516 45.187 56.2648 44.6611 56.5752C44.1869 56.854 43.6782 57.0753 43.1867 57.3224C43.1551 57.3397 43.1235 57.3627 43.089 57.3684C42.5027 57.4805 41.9165 57.6817 41.3273 57.6874C37.5308 57.719 33.7344 57.7133 29.9379 57.7133H14.3095C13.5738 57.7133 13.3669 57.5121 13.3669 56.7793V40.1823C13.3669 39.5932 13.6629 39.2972 14.2779 39.2943C15.7867 39.2885 17.2955 39.2943 18.8043 39.2885C18.9739 39.2885 19.1435 39.2598 19.428 39.2311C19.2728 39.1161 19.2268 39.0672 19.1722 39.0443C18.7382 38.8661 18.2985 38.7109 17.8732 38.5183C17.468 38.3344 17.0742 38.1217 16.6891 37.9004C15.6746 37.317 14.8728 36.4893 14.1457 35.5984C13.798 35.1702 13.591 34.6328 13.3238 34.1413C12.9674 33.489 12.8898 32.7619 12.703 32.0635C12.4875 31.2588 12.4616 30.4771 12.5306 29.6983C12.6082 28.8073 12.7749 27.9078 13.2749 27.1146C13.5106 26.7381 13.6514 26.3013 13.8928 25.9305C14.1831 25.4793 14.5021 25.0339 14.8671 24.643C15.3873 24.0855 15.9218 23.5279 16.5253 23.071C17.0829 22.6485 17.7324 22.3467 18.3589 22.022C18.7239 21.8323 19.1205 21.7001 19.5056 21.5535C19.6263 21.5076 19.7585 21.4788 19.8878 21.4759C20.3678 21.4587 20.8448 21.4443 21.3248 21.4443H47.9459C48.7334 21.4443 48.8024 21.5104 48.8024 22.3065C48.8024 27.8503 48.7966 33.397 48.811 38.9408C48.811 39.5242 48.5466 39.9323 47.8454 39.9093C46.5895 39.8662 45.3307 39.8949 44.0748 39.9007C43.9311 39.9007 43.7903 39.9352 43.5891 39.961L44.7271 40.5991Z" fill="white"/>
</g>
<defs>
<clipPath id="clip0_637_10962">
<rect width="61.8682" height="77.53" fill="white" transform="translate(0 0.813965)"/>
</clipPath>
</defs>
</svg>
