<svg width="85" height="23" viewBox="0 0 85 23" fill="none" xmlns="http://www.w3.org/2000/svg">
<g clip-path="url(#clip0_424_4294)">
<path d="M0 13.0768H3.99956C4.04171 13.5492 4.05737 14.0351 4.13324 14.5111C4.51501 16.9146 6.09268 18.3477 8.6326 18.5594C10.3957 18.7063 12.0505 18.4223 13.2945 16.9819C14.3435 15.7667 14.6434 14.2651 14.6602 12.7158C14.6879 10.1691 14.6458 7.62121 14.6337 5.07329C14.6337 4.83098 14.6337 4.58744 14.6337 4.29006H8.30141V0.5H18.6815C18.6815 0.581146 18.6815 0.643183 18.6815 0.717834C18.6791 4.99864 18.7706 9.28189 18.6417 13.559C18.5141 17.7847 16.0898 21.8661 10.6173 22.3923C10.5282 22.4009 10.4566 22.4052 10.3572 22.4052H8.06897C7.92303 22.4052 7.77512 22.3996 7.62458 22.3801C4.05978 21.9371 1.63306 20.0549 0.533516 16.5365C0.293855 15.7716 0.174627 14.9664 0 14.1783C0 13.8111 0 13.444 0 13.0768Z" fill="white"/>
<path d="M27.1744 12.9839H28.1282C28.1619 13.2666 28.1655 13.5322 28.2282 13.7831C28.522 14.9603 29.347 15.5135 30.4682 15.6958C31.6773 15.8916 32.8443 15.85 33.7753 14.8967C34.5834 14.0694 34.475 12.8542 33.461 12.3133C32.7299 11.9229 31.8869 11.7467 31.086 11.5007C30.4538 11.3073 29.7938 11.1997 29.1736 10.9757C27.2804 10.2928 26.848 7.89788 28.3522 6.52724C29.8648 5.14926 32.9636 5.35852 34.2666 6.93598C34.7195 7.48424 34.9591 8.11816 34.9134 8.89159H33.9788C33.3213 6.8442 31.7604 6.02426 29.8408 6.71081C28.9748 7.02043 28.4823 7.71186 28.4931 8.59789C28.5027 9.38967 28.9483 9.87919 29.9202 10.1594C31.1896 10.5241 32.5023 10.7799 33.7211 11.2719C35.4662 11.9768 35.8997 14.2077 34.5605 15.5514C34.0812 16.0324 33.3453 16.3579 32.6733 16.5084C31.3486 16.8058 29.9985 16.7667 28.7436 16.1156C27.6115 15.5282 27.0094 14.3191 27.1744 12.9839Z" fill="white"/>
<path d="M57.6729 5.8847H64.8169V6.73156H58.6893V10.5033H64.3942V11.4174H58.6833V15.522H64.8759V16.4496H57.6729V5.8847Z" fill="white"/>
<path d="M48.5896 15.5573H54.787V16.4384H47.5996V5.90281H54.74V6.71418H48.6076V10.5202H54.3378V11.427H48.5908V15.5573H48.5896Z" fill="white"/>
<path d="M84.9764 5.89565V6.70946H78.8271V10.491H84.5525V11.4247H83.931H78.7813V15.5317H84.9993V16.4471H77.8179V5.89565H84.974H84.9764Z" fill="white"/>
<path d="M67.6491 5.88464L66.5625 5.88293C66.6086 6.02336 66.617 6.03884 66.6363 6.09269C67.8502 9.43118 69.1439 13.0689 70.3398 16.4147H71.6756C72.4368 14.2719 73.3046 11.7723 74.0826 9.63555C74.5318 8.40075 75.0127 7.13266 75.468 5.8844L74.4407 5.88562C73.3411 8.95855 72.1617 12.0645 71.0116 15.2782C69.8615 12.0645 68.7487 8.95757 67.6491 5.88464Z" fill="white"/>
<path d="M39.2599 15.5516H45.1045V16.4511H38.3193V5.89713H39.2611V15.5516H39.2599Z" fill="white"/>
</g>
<defs>
<clipPath id="clip0_424_4294">
<rect width="85" height="22" fill="white" transform="translate(0 0.5)"/>
</clipPath>
</defs>
</svg>
