<svg width="144" height="44" viewBox="0 0 144 44" fill="none" xmlns="http://www.w3.org/2000/svg">
<g clip-path="url(#clip0_265_4065)">
<rect width="40.6154" height="44" transform="translate(0.0771484)" fill="#E62828"/>
<path d="M3.46191 24.6685H10.2304C10.3017 25.468 10.3282 26.2901 10.4566 27.0958C11.1027 31.1633 13.7726 33.5884 18.0709 33.9467C21.0547 34.1952 23.855 33.7148 25.9604 31.2772C27.7355 29.2206 28.243 26.6795 28.2715 24.0576C28.3184 19.7478 28.2471 15.4359 28.2267 11.1241C28.2267 10.714 28.2267 10.3019 28.2267 9.7986H17.5104V3.38464H35.0767C35.0767 3.52197 35.0767 3.62695 35.0767 3.75329C35.0726 10.9977 35.2275 18.2463 35.0095 25.4845C34.7934 32.6358 30.6908 39.5426 21.4297 40.4332C21.2789 40.4477 21.1576 40.4549 20.9895 40.4549H17.1171C16.8701 40.4549 16.6198 40.4456 16.365 40.4124C10.3323 39.6627 6.22556 36.4775 4.36479 30.5233C3.95921 29.2289 3.75744 27.8662 3.46191 26.5325C3.46191 25.9111 3.46191 25.2898 3.46191 24.6685Z" fill="white"/>
<path d="M46.0641 24.3231H47.6783C47.7353 24.8015 47.7415 25.2509 47.8474 25.6754C48.3447 27.6678 49.7408 28.6039 51.6383 28.9124C53.6845 29.2438 55.6594 29.1734 57.2349 27.5601C58.6024 26.1601 58.419 24.1035 56.7029 23.1881C55.4658 22.5275 54.0391 22.2293 52.6838 21.813C51.6138 21.4858 50.4969 21.3035 49.4473 20.9245C46.2435 19.7689 45.5118 15.7159 48.0574 13.3964C50.6172 11.0644 55.8612 11.4185 58.0664 14.0881C58.8327 15.0159 59.2383 16.0887 59.1609 17.3976H57.5793C56.4665 13.9327 53.8251 12.5452 50.5764 13.707C49.111 14.231 48.2775 15.4011 48.2958 16.9005C48.3121 18.2405 49.0662 19.0689 50.7109 19.5431C52.8591 20.1603 55.0806 20.5932 57.1431 21.4257C60.0963 22.6186 60.8301 26.3941 58.5637 28.6681C57.7525 29.482 56.5073 30.0329 55.37 30.2876C53.1281 30.7909 50.8434 30.7246 48.7197 29.6228C46.8039 28.6287 45.7849 26.5826 46.0641 24.3231Z" fill="white"/>
<path d="M97.6777 11.8462H109.768V13.2793H99.3979V19.6622H109.052V21.2093H99.3877V28.1555H109.868V29.7253H97.6777V11.8462Z" fill="white"/>
<path d="M82.3052 28.1845H92.7932V29.6756H80.6299V11.8462H92.7137V13.2193H82.3358V19.6602H92.033V21.1948H82.3072V28.1845H82.3052Z" fill="white"/>
<path d="M143.883 11.8462V13.2234H133.476V19.6229H143.166V21.2031H142.114H133.399V28.1534H143.922V29.7025H131.769V11.8462H143.879H143.883Z" fill="white"/>
<path d="M114.561 11.8491L112.722 11.8462C112.8 12.0838 112.814 12.11 112.847 12.2012C114.901 17.8509 117.09 24.0071 119.114 29.6692H121.375C122.663 26.0429 124.131 21.8128 125.448 18.1968C126.208 16.1071 127.022 13.9611 127.792 11.8487L126.054 11.8507C124.193 17.0511 122.197 22.3073 120.251 27.7458C118.305 22.3073 116.421 17.0494 114.561 11.8491Z" fill="white"/>
<path d="M66.5166 28.1845H76.4074V29.7067H64.9248V11.8462H66.5186V28.1845H66.5166Z" fill="white"/>
</g>
<defs>
<clipPath id="clip0_265_4065">
<rect width="143.846" height="44" fill="white" transform="translate(0.0771484)"/>
</clipPath>
</defs>
</svg>
