<svg width="22" height="22" viewBox="0 0 22 22" fill="none" xmlns="http://www.w3.org/2000/svg">
<path d="M20.7074 10.2982C20.9126 10.7436 20.9126 11.2566 20.7074 11.702L16.4649 20.9104C16.1909 21.505 15.5961 21.8859 14.9414 21.8859L7.05883 21.8859C6.40414 21.8859 5.80928 21.505 5.53533 20.9104L1.29282 11.702C1.0876 11.2566 1.0876 10.7436 1.29282 10.2982L5.53533 1.08973C5.80929 0.495118 6.40415 0.114223 7.05883 0.114223L14.9414 0.114223C15.5961 0.114223 16.1909 0.495117 16.4649 1.08973L20.7074 10.2982Z" fill="#E62828"/>
<path d="M15.4725 11.3308C15.548 11.3784 15.6179 11.4203 15.6859 11.4641C15.7242 11.4893 15.7633 11.5144 15.7987 11.5433C16.1388 11.8173 16.4576 12.1174 16.6495 12.5134C16.766 12.7529 16.8704 12.998 16.9151 13.2776L16.9159 13.2826C16.9632 13.5763 17.0098 13.8663 16.9515 14.1517C16.889 14.4583 16.8583 14.7677 16.7306 15.0696C16.547 15.5057 16.2935 15.8738 15.945 16.1795C15.7968 16.309 15.6216 16.4106 15.4511 16.5113C15.2973 16.6016 15.1324 16.6734 14.973 16.7535C14.9628 16.7591 14.9525 16.7666 14.9414 16.7685C14.7513 16.8048 14.5611 16.87 14.3701 16.8719C13.1391 16.8821 11.908 16.8803 10.677 16.8803H5.60935C5.37078 16.8803 5.30369 16.815 5.30369 16.5774V11.1957C5.30369 11.0047 5.39967 10.9087 5.5991 10.9078C6.08834 10.9059 6.57759 10.9078 7.06683 10.9059C7.12182 10.9059 7.1768 10.8966 7.26906 10.8873C7.21873 10.85 7.20382 10.8341 7.18612 10.8267C7.0454 10.7689 6.90282 10.7186 6.7649 10.6561C6.6335 10.5965 6.50583 10.5275 6.38096 10.4558C6.052 10.2666 5.792 9.99823 5.55623 9.70934C5.44347 9.57049 5.37637 9.39622 5.28971 9.23687C5.17415 9.02533 5.14899 8.78956 5.08842 8.56311C5.01853 8.30218 5.01014 8.0487 5.0325 7.79616C5.05767 7.50727 5.11172 7.21559 5.27387 6.95838C5.35028 6.8363 5.39594 6.69466 5.47422 6.57444C5.56835 6.42813 5.67179 6.28369 5.79014 6.15695C5.95881 5.97616 6.13214 5.79538 6.32784 5.6472C6.50863 5.51022 6.71924 5.41237 6.92239 5.30706C7.04074 5.24556 7.16934 5.20269 7.29422 5.15516C7.33336 5.14025 7.37622 5.13093 7.41816 5.13C7.57379 5.12441 7.72848 5.11975 7.88411 5.11975H16.5163C16.7716 5.11975 16.794 5.14118 16.794 5.39932C16.794 7.19695 16.7921 8.99551 16.7968 10.7931C16.7968 10.9823 16.711 11.1146 16.4836 11.1072C16.0764 11.0932 15.6682 11.1025 15.261 11.1044C15.2144 11.1044 15.1687 11.1156 15.1035 11.124L15.4725 11.3308Z" fill="white"/>
</svg>
