<svg width="19" height="18" viewBox="0 0 19 18" fill="none" xmlns="http://www.w3.org/2000/svg">
<path fill-rule="evenodd" clip-rule="evenodd" d="M9.90625 4.5C9.90625 4.5 11.0712 4.5 11.895 5.32376C11.895 5.32376 12.7188 6.14752 12.7188 7.3125C12.7188 7.3125 12.7188 8.47748 11.895 9.30124C11.895 9.30124 11.0712 10.125 9.90625 10.125C9.90625 10.125 8.74127 10.125 7.91751 9.30124C7.91751 9.30124 7.09375 8.47748 7.09375 7.3125C7.09375 7.3125 7.09375 6.14752 7.91751 5.32376C7.91751 5.32376 8.74127 4.5 9.90625 4.5ZM9.90625 5.625C9.90625 5.625 9.20726 5.625 8.71301 6.11926C8.71301 6.11926 8.21875 6.61351 8.21875 7.3125C8.21875 7.3125 8.21875 8.01149 8.71301 8.50574C8.71301 8.50574 9.20726 9 9.90625 9C9.90625 9 10.6052 9 11.0995 8.50574C11.0995 8.50574 11.5938 8.01149 11.5938 7.3125C11.5938 7.3125 11.5937 6.61351 11.0995 6.11926C11.0995 6.11926 10.6052 5.625 9.90625 5.625Z" fill="white" fill-opacity="0.4"/>
<path fill-rule="evenodd" clip-rule="evenodd" d="M15.6228 4.94465C15.6228 4.94465 16.0938 6.08173 16.0938 7.3125C16.0938 7.3125 16.0938 10.6869 13.1432 14.08C13.1432 14.08 12.2365 15.1228 11.1495 16.0468C11.1495 16.0468 10.602 16.5121 10.2288 16.7733C10.0351 16.9089 9.77736 16.9089 9.58368 16.7733C9.58368 16.7733 9.21049 16.5121 8.66304 16.0468C8.66304 16.0468 7.57603 15.1228 6.66928 14.08C6.66928 14.08 3.71875 10.6869 3.71875 7.3125C3.71875 7.3125 3.71875 6.08173 4.18975 4.94465C4.18975 4.94465 4.66074 3.80756 5.53103 2.93728C5.53103 2.93728 6.40131 2.06699 7.5384 1.596C7.5384 1.596 8.67548 1.125 9.90625 1.125C9.90625 1.125 11.137 1.125 12.2741 1.596C12.2741 1.596 13.4112 2.06699 14.2815 2.93728C14.2815 2.93728 15.1518 3.80756 15.6228 4.94465ZM14.9688 7.3125C14.9688 7.3125 14.9688 6.30551 14.5834 5.37516C14.5834 5.37516 14.198 4.44483 13.486 3.73277C13.486 3.73277 12.7739 3.02072 11.8436 2.63536C11.8436 2.63536 10.9132 2.25 9.90625 2.25C9.90625 2.25 8.89926 2.25 7.96891 2.63536C7.96891 2.63536 7.03857 3.02072 6.32652 3.73277C6.32652 3.73277 5.61447 4.44482 5.22911 5.37516C5.22911 5.37516 4.84375 6.30551 4.84375 7.3125C4.84375 7.3125 4.84375 10.2662 7.51822 13.3418C7.51822 13.3418 8.36928 14.3206 9.39165 15.1896C9.39165 15.1896 9.67701 15.4321 9.90625 15.6113C9.90625 15.6113 10.1355 15.4321 10.4209 15.1896C10.4209 15.1896 11.4432 14.3206 12.2943 13.3418C12.2943 13.3418 14.9688 10.2662 14.9688 7.3125Z" fill="white" fill-opacity="0.4"/>
</svg>
