<svg width="18" height="21" viewBox="0 0 18 21"  xmlns="http://www.w3.org/2000/svg">
<path d="M17.7002 14.9906C17.147 14.0344 16.4814 12.2156 16.4814 9V8.33438C16.4814 4.18125 13.1533 0.778125 9.05642 0.75H9.00017C8.01649 0.75123 7.04268 0.9462 6.13434 1.32378C5.22601 1.70135 4.40094 2.25414 3.70624 2.95058C3.01154 3.64702 2.46082 4.47347 2.08552 5.38275C1.71022 6.29202 1.51769 7.26632 1.51892 8.25V9C1.51892 12.2156 0.853295 14.0344 0.30017 14.9906C0.166399 15.2185 0.0951976 15.4777 0.0937718 15.7419C0.0923461 16.0061 0.160747 16.2661 0.292051 16.4954C0.423355 16.7247 0.612903 16.9152 0.841513 17.0477C1.07012 17.1803 1.32968 17.25 1.59392 17.25H5.25017C5.25017 18.2446 5.64526 19.1984 6.34852 19.9016C7.05178 20.6049 8.00561 21 9.00017 21C9.99473 21 10.9486 20.6049 11.6518 19.9016C12.3551 19.1984 12.7502 18.2446 12.7502 17.25H16.4064C16.6706 17.2517 16.9305 17.1831 17.1595 17.0513C17.3884 16.9196 17.5783 16.7293 17.7095 16.5C17.8397 16.2694 17.9073 16.0088 17.9056 15.7441C17.904 15.4793 17.8332 15.2196 17.7002 14.9906ZM9.00017 19.5C8.40419 19.4975 7.83333 19.2597 7.41191 18.8383C6.99048 18.4168 6.75264 17.846 6.75017 17.25H11.2502C11.2477 17.846 11.0099 18.4168 10.5884 18.8383C10.167 19.2597 9.59615 19.4975 9.00017 19.5Z" />
</svg>
