<svg width="121" height="46" viewBox="0 0 121 46" fill="none" xmlns="http://www.w3.org/2000/svg">
<path d="M40.8761 21.7454C41.2429 22.5415 41.2429 23.4583 40.8761 24.2545L33.2932 40.7134C32.8035 41.7762 31.7403 42.457 30.5701 42.457L16.4811 42.457C15.3109 42.457 14.2477 41.7762 13.758 40.7134L6.17507 24.2545C5.80826 23.4583 5.80826 22.5415 6.17507 21.7454L13.758 5.28645C14.2477 4.22365 15.3109 3.54286 16.4811 3.54286L30.5701 3.54286C31.7403 3.54286 32.8035 4.22366 33.2932 5.28645L40.8761 21.7454Z" fill="#E62828"/>
<path d="M31.5198 23.5912C31.6547 23.6761 31.7796 23.7511 31.9012 23.8293C31.9695 23.8743 32.0394 23.9193 32.1027 23.9709C32.7107 24.4606 33.2803 24.997 33.6235 25.7049C33.8317 26.1329 34.0182 26.571 34.0982 27.0707L34.0996 27.0797C34.1841 27.6046 34.2675 28.123 34.1631 28.6331C34.0515 29.1811 33.9966 29.734 33.7684 30.2737C33.4403 31.0532 32.9872 31.7112 32.3642 32.2575C32.0994 32.489 31.7863 32.6706 31.4815 32.8505C31.2066 33.012 30.9118 33.1403 30.627 33.2835C30.6087 33.2935 30.5903 33.3069 30.5703 33.3102C30.2306 33.3751 29.8908 33.4917 29.5493 33.4951C27.349 33.5134 25.1487 33.5101 22.9484 33.5101H13.8906C13.4642 33.5101 13.3442 33.3935 13.3442 32.9687V23.3496C13.3442 23.0082 13.5158 22.8366 13.8723 22.8349C14.7467 22.8316 15.6212 22.8349 16.4956 22.8316C16.5939 22.8316 16.6922 22.815 16.8571 22.7983C16.7671 22.7317 16.7405 22.7034 16.7088 22.69C16.4573 22.5868 16.2025 22.4968 15.956 22.3852C15.7211 22.2786 15.4929 22.1554 15.2697 22.0271C14.6818 21.689 14.217 21.2093 13.7956 20.6929C13.5941 20.4447 13.4742 20.1333 13.3193 19.8484C13.1127 19.4703 13.0677 19.0489 12.9595 18.6442C12.8346 18.1778 12.8196 17.7247 12.8595 17.2734C12.9045 16.757 13.0011 16.2357 13.2909 15.7759C13.4275 15.5577 13.5091 15.3046 13.6491 15.0897C13.8173 14.8282 14.0022 14.57 14.2137 14.3435C14.5152 14.0204 14.825 13.6972 15.1748 13.4324C15.4979 13.1875 15.8744 13.0126 16.2375 12.8244C16.449 12.7145 16.6789 12.6379 16.9021 12.5529C16.972 12.5263 17.0486 12.5096 17.1236 12.5079C17.4018 12.498 17.6783 12.4896 17.9564 12.4896H33.3853C33.8417 12.4896 33.8817 12.5279 33.8817 12.9893C33.8817 16.2023 33.8783 19.417 33.8866 22.6301C33.8866 22.9682 33.7334 23.2047 33.327 23.1914C32.5991 23.1664 31.8695 23.1831 31.1417 23.1864C31.0584 23.1864 30.9768 23.2064 30.8602 23.2214L31.5198 23.5912Z" fill="white"/>
<path d="M54.5925 18.4091C53.5975 17.3269 52.0614 16.7509 50.1588 16.7509H50.1413C47.1913 16.7509 45.1839 17.9727 45.1839 20.3292C45.1839 21.813 45.9694 23.0698 47.9768 23.5585L50.665 24.2218C51.6774 24.4662 52.1487 24.9026 52.1487 25.6183C52.1487 26.4561 51.4156 26.9623 50.054 26.9623H50.0366C48.6576 26.9623 47.5754 26.5085 46.7899 25.0946L44.6777 26.6307C45.6029 28.3588 47.4183 29.249 49.9842 29.249H50.0017C52.7771 29.249 54.767 27.9399 54.767 25.6881C54.767 24.0822 54.1386 22.4588 51.7647 21.9526L49.4256 21.4289C48.099 21.1497 47.7848 20.7482 47.7848 20.2245C47.7848 19.4739 48.6401 19.0375 50.0366 19.0375H50.054C51.3807 19.0375 52.2884 19.439 53.0913 20.3118L54.5925 18.4091Z" fill="white"/>
<path d="M56.5315 16.9603V29.0396H59.115V25.8277H61.262C64.5611 25.8277 66.3066 24.2916 66.3066 21.4115V21.394C66.3066 18.5139 64.5611 16.9603 61.262 16.9603H56.5315ZM63.7232 21.4115C63.7232 22.8079 62.8854 23.384 61.262 23.384H59.115V19.3866H61.262C62.8854 19.3866 63.7232 20.015 63.7232 21.394V21.4115Z" fill="white"/>
<path d="M74.1294 16.9603H71.354L66.4315 29.0396H69.1546L70.1147 26.5085H75.3688L76.3463 29.0396H79.0694L74.1294 16.9603ZM74.5484 24.2393H70.9351L72.7505 19.6136L74.5484 24.2393Z" fill="white"/>
<path d="M90.6272 29.0396L87.782 24.7979C89.4403 24.2218 90.3305 22.9476 90.3305 21.0973V21.0798C90.3305 18.5139 88.6024 16.9603 85.5128 16.9603H80.5554V29.0396H83.1388V25.1295H85.3033L87.7471 29.0396H90.6272ZM85.5128 19.2819C86.8918 19.2819 87.7471 19.8056 87.7471 21.0798V21.0973C87.7471 22.4064 86.8918 22.9127 85.5128 22.9127H83.1388V19.2819H85.5128Z" fill="white"/>
<path d="M91.1401 16.9603V19.439H94.7709V29.0396H97.3368V19.439H100.968V16.9603H91.1401Z" fill="white"/>
<path d="M108.077 16.9603H105.302L100.379 29.0396H103.102L104.062 26.5085H109.316L110.294 29.0396H113.017L108.077 16.9603ZM108.496 24.2393H104.883L106.698 19.6136L108.496 24.2393Z" fill="white"/>
</svg>
