<svg width="10" height="10" viewBox="0 0 10 10"  xmlns="http://www.w3.org/2000/svg">
<path d="M5 0.429688C4.09608 0.429688 3.21246 0.697732 2.46087 1.19992C1.70929 1.70212 1.1235 2.4159 0.777584 3.25102C0.431668 4.08613 0.34116 5.00507 0.517507 5.89162C0.693853 6.77818 1.12913 7.59253 1.7683 8.2317C2.40747 8.87087 3.22182 9.30615 4.10838 9.4825C4.99493 9.65884 5.91387 9.56833 6.74898 9.22242C7.5841 8.8765 8.29789 8.29071 8.80008 7.53913C9.30227 6.78755 9.57031 5.90392 9.57031 5C9.56799 3.78859 9.08573 2.62746 8.22914 1.77087C7.37254 0.91427 6.21141 0.43201 5 0.429688ZM6.65674 6.15576C6.72276 6.22242 6.75979 6.31244 6.75979 6.40625C6.75979 6.50006 6.72276 6.59008 6.65674 6.65674C6.58954 6.72171 6.49973 6.75804 6.40625 6.75804C6.31278 6.75804 6.22296 6.72171 6.15576 6.65674L5 5.49658L3.84424 6.65674C3.77704 6.72171 3.68723 6.75804 3.59375 6.75804C3.50028 6.75804 3.41046 6.72171 3.34326 6.65674C3.27725 6.59008 3.24021 6.50006 3.24021 6.40625C3.24021 6.31244 3.27725 6.22242 3.34326 6.15576L4.50342 5L3.34326 3.84424C3.2872 3.77593 3.25855 3.68921 3.26289 3.60095C3.26722 3.51269 3.30423 3.4292 3.36672 3.36671C3.4292 3.30423 3.51269 3.26722 3.60096 3.26289C3.68922 3.25855 3.77593 3.2872 3.84424 3.34326L5 4.50342L6.15576 3.34326C6.22407 3.2872 6.31079 3.25855 6.39905 3.26289C6.48731 3.26722 6.5708 3.30423 6.63329 3.36671C6.69577 3.4292 6.73278 3.51269 6.73712 3.60095C6.74145 3.68921 6.7128 3.77593 6.65674 3.84424L5.49658 5L6.65674 6.15576Z" />
</svg>
