<svg width="20" height="21" viewBox="0 0 20 21"  xmlns="http://www.w3.org/2000/svg">
<path d="M19.5249 20.0344C19.3849 20.1722 19.1964 20.2497 18.9999 20.25C18.8007 20.2492 18.6095 20.172 18.4655 20.0344L14.4155 15.975C12.7098 17.4077 10.5169 18.1266 8.29403 17.9817C6.07118 17.8368 3.99008 16.8394 2.48476 15.1975C0.979436 13.5555 0.16612 11.3958 0.214438 9.16875C0.262757 6.94172 1.16898 4.81931 2.7441 3.24419C4.31922 1.66907 6.44163 0.762848 8.66866 0.71453C10.8957 0.666211 13.0554 1.47953 14.6974 2.98485C16.3393 4.49017 17.3367 6.57128 17.4816 8.79412C17.6265 11.017 16.9076 13.2099 15.4749 14.9156L19.5249 18.9656C19.5958 19.0354 19.652 19.1186 19.6905 19.2103C19.7289 19.3021 19.7486 19.4005 19.7486 19.5C19.7486 19.5994 19.7289 19.6979 19.6905 19.7897C19.652 19.8814 19.5958 19.9646 19.5249 20.0344ZM8.8749 16.5C10.2841 16.5 11.6616 16.0821 12.8333 15.2992C14.005 14.5163 14.9183 13.4035 15.4575 12.1016C15.9968 10.7997 16.1379 9.36709 15.863 7.98497C15.5881 6.60286 14.9095 5.33331 13.913 4.33686C12.9166 3.34041 11.647 2.66182 10.2649 2.3869C8.8828 2.11198 7.45021 2.25308 6.14828 2.79235C4.84636 3.33163 3.73358 4.24485 2.95068 5.41655C2.16777 6.58825 1.7499 7.9658 1.7499 9.37499C1.75238 11.2639 2.50385 13.0747 3.8395 14.4104C5.17516 15.746 6.986 16.4975 8.8749 16.5Z"/>
</svg>
