<svg width="24" height="19" viewBox="0 0 24 19"  xmlns="http://www.w3.org/2000/svg">
<path d="M22.5 17H21V8.32812C21.0005 8.11902 20.9565 7.9122 20.8708 7.72145C20.7851 7.5307 20.6598 7.36039 20.5031 7.22187L13.0031 0.40625C12.7281 0.153926 12.3685 0.0139313 11.9953 0.0139313C11.6221 0.0139313 11.2625 0.153926 10.9875 0.40625L3.4875 7.22187C3.33394 7.36236 3.2113 7.53326 3.12737 7.72371C3.04344 7.91417 3.00007 8.12 3 8.32812V17H1.5C1.30109 17 1.11032 17.079 0.96967 17.2197C0.829018 17.3603 0.75 17.5511 0.75 17.75C0.75 17.9489 0.829018 18.1397 0.96967 18.2803C1.11032 18.421 1.30109 18.5 1.5 18.5H22.5C22.6989 18.5 22.8897 18.421 23.0303 18.2803C23.171 18.1397 23.25 17.9489 23.25 17.75C23.25 17.5511 23.171 17.3603 23.0303 17.2197C22.8897 17.079 22.6989 17 22.5 17ZM14.25 17H9.75V12.5C9.75 12.3011 9.82902 12.1103 9.96967 11.9697C10.1103 11.829 10.3011 11.75 10.5 11.75H13.5C13.6989 11.75 13.8897 11.829 14.0303 11.9697C14.171 12.1103 14.25 12.3011 14.25 12.5V17Z" />
</svg>
