<svg width="40" height="8" viewBox="0 0 40 8" fill="none" xmlns="http://www.w3.org/2000/svg">
<path d="M6.41234 1.43144C5.85568 0.825942 4.99627 0.503662 3.93177 0.503662H3.922C2.27154 0.503662 1.14845 1.18729 1.14845 2.5057C1.14845 3.33581 1.58792 4.03897 2.71102 4.31242L4.21499 4.68353C4.78142 4.82025 5.0451 5.0644 5.0451 5.46481C5.0451 5.93358 4.63492 6.21679 3.87317 6.21679H3.86341C3.09189 6.21679 2.4864 5.96288 2.04692 5.17183L0.865234 6.03124C1.38283 6.99808 2.3985 7.49615 3.83411 7.49615H3.84388C5.39668 7.49615 6.51 6.76369 6.51 5.50387C6.51 4.6054 6.15843 3.69716 4.83025 3.41394L3.5216 3.12096C2.77938 2.9647 2.60359 2.74009 2.60359 2.4471C2.60359 2.02716 3.08212 1.78301 3.86341 1.78301H3.87317C4.61539 1.78301 5.12323 2.00763 5.57246 2.49593L6.41234 1.43144Z" fill="white"/>
<path d="M7.49721 0.620855V7.37895H8.94258V5.582H10.1438C11.9896 5.582 12.9662 4.72259 12.9662 3.11119V3.10143C12.9662 1.49003 11.9896 0.620855 10.1438 0.620855H7.49721ZM11.5208 3.11119C11.5208 3.89248 11.052 4.21476 10.1438 4.21476H8.94258V1.97833H10.1438C11.052 1.97833 11.5208 2.32991 11.5208 3.10143V3.11119Z" fill="white"/>
<path d="M17.3429 0.620855H15.7901L13.0361 7.37895H14.5596L15.0967 5.96288H18.0363L18.5832 7.37895H20.1067L17.3429 0.620855ZM17.5773 4.69329H15.5557L16.5714 2.10529L17.5773 4.69329Z" fill="white"/>
<path d="M26.5731 7.37895L24.9812 5.00581C25.909 4.68353 26.4071 3.97061 26.4071 2.93541V2.92564C26.4071 1.49003 25.4402 0.620855 23.7116 0.620855H20.9381V7.37895H22.3835V5.19136H23.5945L24.9617 7.37895H26.5731ZM23.7116 1.91974C24.4832 1.91974 24.9617 2.21272 24.9617 2.92564V2.93541C24.9617 3.66786 24.4832 3.95107 23.7116 3.95107H22.3835V1.91974H23.7116Z" fill="white"/>
<path d="M26.86 0.620855V2.00763H28.8914V7.37895H30.327V2.00763H32.3583V0.620855H26.86Z" fill="white"/>
<path d="M36.3359 0.620855H34.7831L32.0291 7.37895H33.5526L34.0897 5.96288H37.0293L37.5762 7.37895H39.0997L36.3359 0.620855ZM36.5703 4.69329H34.5487L35.5644 2.10529L36.5703 4.69329Z" fill="white"/>
</svg>
