<svg width="16" height="16" viewBox="0 0 16 16" fill="none" xmlns="http://www.w3.org/2000/svg">
<path fill-rule="evenodd" clip-rule="evenodd" d="M10.7528 1.26238C9.3936 0.6875 7.90625 0.6875 7.90625 0.6875C6.4189 0.6875 5.05972 1.26238 5.05972 1.26238C3.74734 1.81747 2.73553 2.82928 2.73553 2.82928C1.72373 3.84109 1.16863 5.15347 1.16863 5.15347C0.59375 6.51265 0.59375 8 0.59375 8C0.59375 9.48735 1.16863 10.8465 1.16863 10.8465C1.72372 12.1589 2.73553 13.1707 2.73553 13.1707C2.81329 13.2485 2.89282 13.3235 2.9734 13.3959C3.00287 13.4287 3.03635 13.4583 3.07334 13.4837C4.01661 14.2964 5.05972 14.7376 5.05972 14.7376C6.4189 15.3125 7.90625 15.3125 7.90625 15.3125C9.3936 15.3125 10.7528 14.7376 10.7528 14.7376C11.5849 14.3857 12.2961 13.8501 12.7053 13.5053C12.7648 13.4704 12.8164 13.4253 12.8585 13.373C12.9991 13.2486 13.077 13.1707 13.077 13.1707C14.0888 12.1589 14.6439 10.8465 14.6439 10.8465C15.2187 9.48734 15.2188 8 15.2188 8C15.2188 6.51265 14.6439 5.15347 14.6439 5.15347C14.0888 3.84109 13.077 2.82928 13.077 2.82928C12.0652 1.81747 10.7528 1.26238 10.7528 1.26238ZM5.49797 13.7015C4.95613 13.4723 4.47471 13.151 4.12377 12.882C4.71692 11.9896 5.55221 11.4769 5.55221 11.4769C6.63535 10.8121 7.90625 10.8125 7.90625 10.8125C9.17715 10.8125 10.2603 11.4769 10.2603 11.4769C10.9422 11.8955 11.4229 12.4997 11.6854 12.8899C10.9847 13.418 10.3145 13.7015 10.3145 13.7015C9.16546 14.1875 7.90625 14.1875 7.90625 14.1875C6.64704 14.1875 5.49797 13.7015 5.49797 13.7015ZM4.96371 10.5181C4.96371 10.5181 5.30274 10.3101 5.84057 10.1023C5.73054 10.0195 5.62293 9.92715 5.51976 9.82399C5.51976 9.82399 4.53125 8.83547 4.53125 7.4375C4.53125 7.4375 4.53125 6.03953 5.51976 5.05101C5.51976 5.05101 6.50828 4.0625 7.90625 4.0625C7.90625 4.0625 9.30422 4.0625 10.2927 5.05101C10.2927 5.05101 11.2812 6.03953 11.2812 7.4375C11.2812 7.4375 11.2813 8.83547 10.2927 9.82399C10.2927 9.82399 10.177 9.93972 9.96873 10.092C10.261 10.2016 10.5602 10.341 10.8488 10.5181C10.8488 10.5181 11.7916 11.0968 12.5215 12.1114C12.8102 11.7751 13.2949 11.148 13.6077 10.4083C13.6077 10.4083 14.0938 9.25921 14.0938 8C14.0938 8 14.0938 6.74079 13.6077 5.59172C13.6077 5.59172 13.1381 4.48143 12.2815 3.62478C12.2815 3.62478 11.4248 2.76813 10.3145 2.29851C10.3145 2.29851 9.16547 1.8125 7.90625 1.8125C7.90625 1.8125 6.64703 1.8125 5.49797 2.29851C5.49797 2.29851 4.38768 2.76813 3.53103 3.62478C3.53103 3.62478 2.67438 4.48143 2.20476 5.59172C2.20476 5.59172 1.71875 6.74078 1.71875 8C1.71875 8 1.71875 9.25922 2.20476 10.4083C2.20476 10.4083 2.58843 11.3154 3.29478 12.1224C3.63951 11.6405 4.20085 10.9864 4.96371 10.5181ZM9.49724 9.02849C8.83823 9.6875 7.90625 9.6875 7.90625 9.6875C6.97427 9.6875 6.31526 9.02849 6.31526 9.02849C5.65625 8.36948 5.65625 7.4375 5.65625 7.4375C5.65625 6.50552 6.31526 5.84651 6.31526 5.84651C6.97427 5.1875 7.90625 5.1875 7.90625 5.1875C8.83823 5.1875 9.49724 5.84651 9.49724 5.84651C10.1562 6.50552 10.1562 7.4375 10.1562 7.4375C10.1562 8.36948 9.49724 9.02849 9.49724 9.02849Z" fill="white" fill-opacity="0.4"/>
</svg>
