<svg width="41" height="44" viewBox="0 0 41 44" fill="none" xmlns="http://www.w3.org/2000/svg">
<rect width="40.6154" height="44" transform="translate(0.0771484)" fill="#E62828"/>
<path d="M3.46191 24.6685H10.2304C10.3017 25.468 10.3282 26.2901 10.4566 27.0958C11.1027 31.1633 13.7726 33.5884 18.0709 33.9467C21.0547 34.1952 23.855 33.7148 25.9604 31.2772C27.7355 29.2206 28.243 26.6795 28.2715 24.0576C28.3184 19.7478 28.2471 15.4359 28.2267 11.1241C28.2267 10.714 28.2267 10.3019 28.2267 9.7986H17.5104V3.38464H35.0767C35.0767 3.52197 35.0767 3.62695 35.0767 3.75329C35.0726 10.9977 35.2275 18.2463 35.0095 25.4845C34.7934 32.6358 30.6908 39.5426 21.4297 40.4332C21.2789 40.4477 21.1576 40.4549 20.9895 40.4549H17.1171C16.8701 40.4549 16.6198 40.4456 16.365 40.4124C10.3323 39.6627 6.22556 36.4775 4.36479 30.5233C3.95921 29.2289 3.75744 27.8662 3.46191 26.5325C3.46191 25.9111 3.46191 25.2898 3.46191 24.6685Z" fill="white"/>
</svg>
